{"accessors":[{"bufferView":0,"componentType":5126,"count":36,"max":[5.0,0.5,7.0],"min":[-5.0,-0.5,-7.0],"normalized":false,"type":"VEC3"},{"bufferView":1,"componentType":5126,"count":36,"max":[0.0,0.0,7.630093023180962e-05,-1.0],"min":[-1.0,-1.0,-1.0,-1.0],"normalized":false,"type":"VEC4"},{"bufferView":2,"componentType":5126,"count":36,"max":[1.0,1.0,1.0],"min":[-1.0,-1.0,-1.0],"normalized":false,"type":"VEC3"},{"bufferView":3,"componentType":5126,"count":36,"max":[1.0,1.0],"min":[0.0,0.0],"normalized":false,"type":"VEC2"},{"bufferView":4,"componentType":5121,"count":36,"max":[35],"min":[0],"normalized":false,"type":"SCALAR"},{"bufferView":5,"componentType":5126,"count":36,"max":[5.5,6.5,0.5],"min":[-5.5,-6.5,-0.5],"normalized":false,"type":"VEC3"},{"bufferView":6,"componentType":5126,"count":36,"max":[6.5,6.5,0.5],"min":[-6.5,-6.5,-0.5],"normalized":false,"type":"VEC3"},{"bufferView":7,"componentType":5126,"count":36,"max":[2.35113525390625,0.5,0.5],"min":[-2.35113525390625,-0.5,-0.5],"normalized":false,"type":"VEC3"}],"asset":{"generator":"Godot Engine v4.6.stable.official@89cea143987d564363e15d207438530651d943ac","version":"2.0"},"bufferViews":[{"buffer":0,"byteLength":432,"byteStride":12,"target":34962},{"buffer":0,"byteLength":576,"byteOffset":432,"byteStride":16,"target":34962},{"buffer":0,"byteLength":432,"byteOffset":1008,"byteStride":12,"target":34962},{"buffer":0,"byteLength":288,"byteOffset":1440,"byteStride":8,"target":34962},{"buffer":0,"byteLength":36,"byteOffset":1728,"target":34963},{"buffer":0,"byteLength":432,"byteOffset":1764,"byteStride":12,"target":34962},{"buffer":0,"byteLength":432,"byteOffset":2196,"byteStride":12,"target":34962},{"buffer":0,"byteLength":432,"byteOffset":2628,"byteStride":12,"target":34962}],"buffers":[{"byteLength":3060,"uri":"entorno0.bin"}],"extensionsUsed":["GODOT_single_root"],"materials":[{},{},{},{},{},{},{}],"meshes":[{"name":"CSGBox3D2","primitives":[{"attributes":{"NORMAL":2,"POSITION":0,"TANGENT":1,"TEXCOORD_0":3},"indices":4,"material":0,"mode":4}]},{"name":"CSGBox3D23","primitives":[{"attributes":{"NORMAL":2,"POSITION":5,"TANGENT":1,"TEXCOORD_0":3},"indices":4,"material":1,"mode":4}]},{"name":"CSGBox3D32","primitives":[{"attributes":{"NORMAL":2,"POSITION":6,"TANGENT":1,"TEXCOORD_0":3},"indices":4,"material":2,"mode":4}]},{"name":"CSGBox3D42","primitives":[{"attributes":{"NORMAL":2,"POSITION":6,"TANGENT":1,"TEXCOORD_0":3},"indices":4,"material":3,"mode":4}]},{"name":"CSGBox3D52","primitives":[{"attributes":{"NORMAL":2,"POSITION":5,"TANGENT":1,"TEXCOORD_0":3},"indices":4,"material":4,"mode":4}]},{"name":"CSGBox3D62","primitives":[{"attributes":{"NORMAL":2,"POSITION":7,"TANGENT":1,"TEXCOORD_0":3},"indices":4,"material":5,"mode":4}]},{"name":"CSGBox3D72","primitives":[{"attributes":{"NORMAL":2,"POSITION":0,"TANGENT":1,"TEXCOORD_0":3},"indices":4,"material":6,"mode":4}]}],"nodes":[{"children":[1,2,3,4,5,6,7],"name":"Node3D"},{"mesh":0,"name":"CSGBox3D2"},{"mesh":1,"name":"CSGBox3D23","translation":[0.0,7.0,-7.0]},{"mesh":2,"name":"CSGBox3D32","rotation":[0.0,0.7071067690849304,0.0,0.7071067690849304],"translation":[-5.0,7.0,0.0]},{"mesh":3,"name":"CSGBox3D42","rotation":[0.0,-0.7071067690849304,0.0,0.7071067690849304],"translation":[5.0,7.0,0.0]},{"mesh":4,"name":"CSGBox3D52","translation":[0.0,7.0,7.0]},{"mesh":5,"name":"CSGBox3D62","translation":[0.85113525390625,1.0,-4.919281959533691]},{"mesh":6,"name":"CSGBox3D72","translation":[0.0,13.0,0.0]}],"scene":0,"scenes":[{"nodes":[0]}]}